<svg xmlns="http://www.w3.org/2000/svg" viewBox="0 0 180 180">
  <style>
    #background { fill: #FFFFFF; }
    #outline { fill: #13294B; }
    #fill { fill: #FF5F05; }
    @media (prefers-color-scheme: dark) {
      #outline { fill: #FFFFFF; }
    }
  </style>
  <path id="background" d="M.19.19h179.63v179.63H.19z"/>
  <path id="outline" d="M123.39 67.74V41.76h-66.8v25.98h14.85v44.54H56.59v25.98h66.8v-25.98h-14.84V67.74h14.84Zm-14.84 48.25h11.13v18.56H60.3v-18.56h11.14c2.05 0 3.71-1.66 3.71-3.71V67.74c0-2.05-1.66-3.71-3.71-3.71H60.3V45.47h59.38v18.56h-11.13c-2.05 0-3.71 1.66-3.71 3.71v44.54c0 2.05 1.66 3.71 3.71 3.71Z"/>
  <path id="fill" d="M108.55 64.02h11.13V45.46H60.3v18.56h11.14c2.05 0 3.71 1.66 3.71 3.71v44.54c0 2.05-1.66 3.71-3.71 3.71H60.3v18.56h59.38v-18.56h-11.13c-2.05 0-3.71-1.66-3.71-3.71V67.73c0-2.05 1.66-3.71 3.71-3.71Z"/>
</svg>
